<?xml version="1.0" standalone="no"?>
<!DOCTYPE svg PUBLIC "-//W3C//DTD SVG 20010904//EN"
 "http://www.w3.org/TR/2001/REC-SVG-20010904/DTD/svg10.dtd">
<svg version="1.0" xmlns="http://www.w3.org/2000/svg"
 width="918.000000pt" height="1280.000000pt" viewBox="0 0 918.000000 1280.000000"
 preserveAspectRatio="xMidYMid meet">
<g transform="translate(0.000000,1280.000000) scale(0.100000,-0.100000)"
fill="#000000" stroke="none">
<path d="M4642 12791 c-63 -16 -166 -76 -217 -126 -73 -71 -99 -131 -100 -227
l0 -77 -60 -39 c-176 -114 -558 -431 -1935 -1605 l-420 -357 -395 -7 -395 -6
0 31 0 32 -276 0 c-168 0 -273 4 -269 9 3 6 -31 7 -87 4 -51 -3 -95 -10 -96
-14 -2 -5 -64 -9 -138 -9 l-134 0 0 -184 0 -184 -34 -51 c-74 -109 -101 -246
-77 -388 14 -78 53 -171 94 -219 l27 -32 1 -723 c1 -1329 17 -2927 33 -3274 8
-181 20 -429 26 -550 32 -690 38 -1066 20 -1350 -13 -205 -37 -952 -46 -1397
l-6 -367 98 0 c91 0 369 15 764 39 85 6 172 10 193 10 37 0 37 0 39 43 l1 42
4 -39 c3 -22 8 -35 11 -29 8 13 220 20 832 28 206 3 488 7 625 10 138 3 403 7
590 10 315 5 470 7 1200 20 585 10 1112 18 1688 25 523 7 468 8 -428 5 -874
-2 -940 -2 -435 5 327 4 1014 11 1525 15 512 4 933 9 938 12 4 2 7 -5 7 -17 0
-11 6 -22 13 -24 46 -15 991 -36 1002 -24 2 2 9 138 16 303 17 399 18 1361 1
1560 -11 133 -38 722 -59 1320 -8 210 -8 210 -14 95 -4 -63 -8 -200 -9 -305
l-3 -190 -17 220 c-38 471 -54 863 -80 1935 -6 234 -15 601 -20 815 -5 215
-14 586 -20 825 -6 239 -15 595 -20 790 -6 195 -10 385 -10 423 0 67 0 67 28
67 32 0 150 38 203 65 53 28 160 104 207 149 88 83 135 190 147 332 13 148
-32 278 -135 387 -87 94 -200 147 -310 147 -121 0 -323 -84 -418 -174 l-54
-51 -114 4 c-79 2 -114 0 -114 -8 0 -8 -64 -11 -212 -11 -117 0 -230 -3 -250
-6 -37 -6 -38 -8 -38 -50 l0 -44 -271 0 -271 0 -67 47 c-36 26 -210 153 -386
283 -176 130 -360 265 -410 300 -74 52 -467 347 -1142 856 -51 38 -92 71 -92
74 -1 3 19 16 43 29 59 30 174 148 204 208 46 89 36 226 -24 345 -65 129 -227
236 -367 243 -39 3 -87 0 -105 -4z m263 -1082 c376 -285 1445 -1083 1633
-1219 l103 -75 -538 -2 c-469 -2 -1696 -17 -3378 -42 -275 -4 -502 -6 -504 -4
-2 2 -2 4 0 6 2 2 344 291 759 643 684 580 1113 934 1130 934 4 0 12 -17 18
-39 7 -21 23 -50 38 -64 20 -21 30 -24 52 -17 130 40 167 55 220 94 33 25 63
49 66 55 4 6 13 11 19 11 7 0 179 -127 382 -281z m2683 -2606 c48 -540 75
-1613 107 -4113 13 -1105 25 -1610 41 -1891 l7 -106 -164 -7 c-167 -6 -953
-28 -1724 -46 -742 -18 -2228 -23 -3350 -11 -593 6 -1138 14 -1210 18 l-131 6
-13 241 c-30 610 -76 5562 -53 5849 5 70 12 131 15 134 10 9 2075 89 2952 114
356 10 2893 54 3341 58 l160 1 22 -247z m-3206 -7270 c-150 -2 -393 -2 -540 0
-147 1 -24 2 273 2 297 0 417 -1 267 -2z m-1174 -10 c-71 -2 -185 -2 -255 0
-71 1 -13 3 127 3 140 0 198 -2 128 -3z m-735 -10 c-112 -2 -294 -2 -405 0
-112 1 -21 2 202 2 223 0 314 -1 203 -2z"/>
<path d="M7143 1853 c75 -2 199 -2 275 0 75 1 13 3 -138 3 -151 0 -213 -2
-137 -3z"/>
</g>
</svg>
